<svg width="274" height="274" viewBox="0 0 274 274" fill="none" xmlns="http://www.w3.org/2000/svg">
<path d="M137.17 273.34C212.375 273.34 273.34 212.375 273.34 137.17C273.34 61.9654 212.375 1 137.17 1C61.9653 1 1 61.9654 1 137.17C1 212.375 61.9653 273.34 137.17 273.34Z" fill="#DE5D4D" stroke="#DE5D4D" stroke-miterlimit="10"/>
<path d="M137.17 249.96C199.462 249.96 249.96 199.462 249.96 137.17C249.96 74.8778 199.462 24.38 137.17 24.38C74.8777 24.38 24.38 74.8778 24.38 137.17C24.38 199.462 74.8777 249.96 137.17 249.96Z" fill="#F38624"/>
<path d="M137.384 107.872C150.866 82.2266 152.822 56.7205 141.754 50.9025C130.687 45.0844 110.786 61.1576 97.3047 86.8029C83.8235 112.448 81.8669 137.954 92.9346 143.772C104.002 149.59 123.903 133.517 137.384 107.872Z" fill="#DE5D4D"/>
<path d="M201.509 141.587C214.99 115.941 216.947 90.4354 205.879 84.6174C194.812 78.7993 174.911 94.8725 161.43 120.518C147.948 146.163 145.992 171.669 157.059 177.487C168.127 183.306 188.028 167.232 201.509 141.587Z" fill="#DE5D4D"/>
<path d="M96.87 213.84C79.28 204.59 66.11 190.24 59.79 173.41C53.24 155.98 54.57 136.98 63.54 119.92C64.32 118.44 66.14 117.88 67.62 118.65C69.1 119.43 69.6601 121.25 68.8901 122.73C52.2901 154.32 65.2399 190.39 99.6899 208.5C134.14 226.61 171.19 216.82 187.8 185.23C188.58 183.75 190.4 183.19 191.88 183.96C193.36 184.74 193.92 186.56 193.15 188.04C184.18 205.1 169.29 216.97 151.22 221.46C133.78 225.79 114.48 223.09 96.8901 213.84H96.87Z" fill="#DE5D4D"/>
</svg>
