<?xml version="1.0" encoding="UTF-8"?>
<svg version="1.1" xmlns="http://www.w3.org/2000/svg" width="512" height="512">
<path d="M0 0 C1.20572771 -0.00453111 2.41145541 -0.00906223 3.65372032 -0.01373065 C6.96067535 -0.02411197 10.26741084 -0.02571591 13.57436621 -0.02334189 C17.1567096 -0.02293036 20.73902167 -0.03400473 24.3213501 -0.04345703 C31.32541189 -0.05999637 38.32944 -0.06556338 45.3335197 -0.06668179 C51.03384358 -0.06763573 56.73415646 -0.07176321 62.43447685 -0.07808304 C78.63627166 -0.09567698 94.83804009 -0.10492493 111.03984452 -0.10342209 C112.34716349 -0.10330222 112.34716349 -0.10330222 113.68089294 -0.10317993 C114.98982931 -0.10305729 114.98982931 -0.10305729 116.32520884 -0.10293217 C130.45321031 -0.10212003 144.58110497 -0.12124441 158.70907558 -0.14945666 C173.2551109 -0.17827187 187.80109429 -0.19199219 202.34715885 -0.19026911 C210.49772625 -0.18960813 218.64818172 -0.19497115 226.79872322 -0.21662521 C233.74048886 -0.23495127 240.68209182 -0.23909171 247.62387133 -0.22560637 C251.15659313 -0.2191334 254.6890039 -0.21874996 258.22169495 -0.23631287 C289.46369982 -0.36303853 315.29509972 4.10527768 338.64646912 26.01742554 C359.51528328 47.9142601 362.9610806 74.32523542 362.85686779 103.28420711 C362.84771863 107.05389497 362.86183527 110.82351219 362.87278748 114.59318542 C362.89047333 121.95535477 362.8867774 129.31736001 362.87513691 136.67953551 C362.86606343 142.66869988 362.86489541 148.65781862 362.86923218 154.64698792 C362.86984511 155.50291364 362.87045804 156.35883937 362.87108955 157.24070224 C362.87236859 158.98008574 362.87366544 160.71946923 362.87497991 162.45885271 C362.88635661 178.72772909 362.87331787 194.99651497 362.85177845 211.26537651 C362.83391012 225.1920488 362.83701505 239.11858768 362.85545349 253.04525757 C362.87691183 269.26021659 362.88525824 285.47509652 362.87300444 301.69006777 C362.87173039 303.42266622 362.8704729 305.15526468 362.86923218 306.88786316 C362.86830652 308.16621025 362.86830652 308.16621025 362.86736217 309.47038254 C362.86392413 315.44483852 362.86970407 321.41924388 362.87915039 327.39369202 C362.89042713 334.68533567 362.88721211 341.97680732 362.86602741 349.26843154 C362.85559265 352.98104038 362.8512637 356.69336359 362.86462402 360.40596962 C362.98345635 396.41109219 362.98345635 396.41109219 354.45896912 411.76742554 C353.93472351 412.75682129 353.93472351 412.75682129 353.39988708 413.76620483 C342.37573017 434.26164268 325.62347409 449.72087114 303.27586365 456.93148804 C291.31145744 460.45748698 279.74081436 461.4189601 267.30549622 461.40113831 C266.13217794 461.40340386 264.95885967 461.40566942 263.74998629 461.40800363 C260.51980556 461.41320966 257.28966016 461.41399353 254.05947661 461.41280925 C250.56510384 461.41260406 247.07073917 461.41813526 243.57637024 461.42286682 C236.73968242 461.43114886 229.90300323 461.43392056 223.06631081 461.4344792 C217.50413766 461.43495558 211.94196733 461.43701643 206.37979507 461.44017982 C190.58271755 461.44898022 174.7856468 461.45360024 158.9885668 461.45284935 C157.71297112 461.45278942 157.71297112 461.45278942 156.41160583 461.45272827 C155.56016076 461.45268739 154.70871569 461.45264651 153.83146925 461.45260439 C140.04333484 461.45219824 126.25522777 461.46176164 112.46710126 461.47586664 C98.28278982 461.49026149 84.09849169 461.49713509 69.91417277 461.49627286 C61.96157782 461.49594193 54.00901153 461.49864305 46.05642319 461.50945091 C39.28358919 461.518597 32.51079684 461.52069771 25.73795931 461.51394149 C22.28887465 461.5106967 18.83986971 461.51054478 15.39079285 461.51929474 C-19.91432614 461.59242926 -19.91432614 461.59242926 -33.91603088 456.57992554 C-34.66562073 456.31937378 -35.41521057 456.05882202 -36.18751526 455.79037476 C-58.3845284 447.75467494 -75.13271391 430.94613434 -85.09571838 409.84164429 C-91.21812883 395.90630707 -92.98103084 381.52049095 -92.91999817 366.40953064 C-92.92311815 365.19533713 -92.92623813 363.98114362 -92.92945266 362.73015636 C-92.93598724 359.40439749 -92.9337206 356.07886883 -92.92748022 352.75312459 C-92.92291614 349.14908889 -92.92995895 345.5450719 -92.93544006 341.94104004 C-92.94429413 334.89801049 -92.94242985 327.85502377 -92.93661478 320.81199259 C-92.93208216 315.08304683 -92.93149228 309.35411299 -92.93366241 303.62516594 C-92.93396888 302.80711135 -92.93427535 301.98905677 -92.9345911 301.14621265 C-92.93523061 299.48389109 -92.93587904 297.82156954 -92.93653628 296.15924799 C-92.94222799 280.60199577 -92.93570011 265.04476718 -92.92493555 249.48751884 C-92.91600278 236.1656888 -92.91755208 222.84389362 -92.92677307 209.52206421 C-92.93749913 194.01875563 -92.94167702 178.51546773 -92.93554854 163.01215595 C-92.93491151 161.3559376 -92.93428276 159.69971925 -92.93366241 158.0435009 C-92.93335386 157.22880066 -92.93304531 156.41410042 -92.93272741 155.5747123 C-92.93100734 149.85935371 -92.9339007 144.14400835 -92.93862152 138.42865181 C-92.94425645 131.45386234 -92.94265943 124.47911783 -92.93206003 117.50433344 C-92.92683799 113.95206032 -92.92468664 110.3998619 -92.93135834 106.84758949 C-92.98308982 76.81657135 -90.57724728 49.2356671 -68.33399963 26.87289429 C-67.45356995 26.0130896 -66.57314026 25.15328491 -65.66603088 24.26742554 C-64.6083551 23.17881226 -64.6083551 23.17881226 -63.52931213 22.06820679 C-46.54516974 5.60167635 -22.97356822 -0.06467287 0 0 Z " fill="#868584" transform="translate(117.66603088378906,23.732574462890625)"/>
<path d="M0 0 C0 14.19 0 28.38 0 43 C5.38034546 42.97643433 5.38034546 42.97643433 10.86938477 42.95239258 C22.76360945 42.90252737 34.65784163 42.86933021 46.55214024 42.84456348 C53.75869168 42.82915591 60.96514344 42.80818478 68.17163086 42.77368164 C74.45964966 42.74359053 80.74759619 42.72438072 87.035685 42.71773452 C90.35903926 42.71385521 93.68202461 42.70324567 97.00534248 42.68280983 C133.9225547 42.46496981 164.17122165 53.13110639 191 79 C191.82371094 79.77472656 192.64742188 80.54945313 193.49609375 81.34765625 C196.21854338 84.23149915 198.39416684 87.28364623 200.5 90.625 C201.08309937 91.54696167 201.08309937 91.54696167 201.67797852 92.48754883 C209.95393359 105.81441032 212.319315 117.73435064 212.265625 133.34765625 C212.26753845 134.59896835 212.2694519 135.85028046 212.27142334 137.13951111 C212.27312139 140.44517149 212.26516153 143.75063949 212.25390625 147.05627441 C212.24746392 150.36501479 212.26278601 153.67369903 212.2734375 156.98242188 C212.29259385 192.44943805 208.01194267 220.94683396 182 247 C162.937128 264.57146665 137.00891874 280.25756481 110.5324707 280.31884766 C109.01477852 280.33391184 109.01477852 280.33391184 107.4664259 280.34928036 C104.11954949 280.38011146 100.77275484 280.39719364 97.42578125 280.4140625 C95.04837426 280.43289418 92.67097344 280.4525186 90.2935791 280.47288513 C83.94327961 280.52469868 77.59295938 280.56426029 71.24255753 280.60109329 C66.00948502 280.6329263 60.77647571 280.67189226 55.54345226 280.71086216 C31.30010284 280.89057284 7.05651636 281.02317968 -17.1875 281.05859375 C-17.97397919 281.05974749 -18.76045837 281.06090122 -19.57077026 281.06208992 C-34.38062488 281.08061136 -49.1901112 281.03328065 -64 281 C-64 261.53 -64 242.06 -64 222 C-55.89945068 221.98598145 -55.89945068 221.98598145 -47.63525391 221.97167969 C-29.79372132 221.93791466 -11.95230393 221.88256894 5.88913536 221.81609726 C16.7065289 221.77632197 27.52384985 221.74392177 38.34130859 221.72900391 C47.77201672 221.7159796 57.20256502 221.68899494 66.63318312 221.64538693 C71.62464696 221.62278976 76.61591379 221.60708828 81.60743332 221.60811615 C86.31069261 221.60886379 91.01351671 221.59087136 95.71666336 221.55883217 C97.43787907 221.55035036 99.15914368 221.54857151 100.88037109 221.55419731 C109.91380313 221.57977808 117.84495634 221.40399878 126 217 C126.95132813 216.51917969 127.90265625 216.03835938 128.8828125 215.54296875 C142.7307002 207.17151051 151.3917082 196.30047395 157 181 C158.20435646 174.02474687 158.25694564 167.08715223 158.29516602 160.03198242 C158.30665286 158.56118118 158.32705254 157.09042053 158.35668945 155.61987305 C158.71408174 137.82013982 153.57991735 125.12803175 141.5625 112 C137.5551789 108.27695111 132.98097835 106.15279573 128 104 C126.60007812 103.31550781 126.60007812 103.31550781 125.171875 102.6171875 C118.66467199 99.69728871 113.04180976 98.61406338 105.97558594 98.36547852 C105.10807583 98.32893693 104.24056572 98.29239534 103.34676743 98.25474644 C92.98876013 97.85887242 82.62943233 97.87469308 72.265625 97.90234375 C70.16428664 97.90421515 68.06294784 97.90563563 65.96160889 97.90663147 C60.50383237 97.91039989 55.04608362 97.92017972 49.58831787 97.93133545 C43.98987198 97.94167356 38.39142149 97.94615531 32.79296875 97.95117188 C21.86196517 97.96180873 10.93098927 97.97935752 0 98 C0 110.54 0 123.08 0 136 C-10.00301205 129.3313253 -10.00301205 129.3313253 -14.0625 125.875 C-18.56703442 122.12647135 -23.17565835 118.56332566 -27.875 115.0625 C-33.28393035 111.03275177 -38.66489482 106.97454208 -44.00439453 102.85302734 C-48.41025049 99.45222789 -52.82810359 96.06741492 -57.25 92.6875 C-57.95721191 92.14625488 -58.66442383 91.60500977 -59.39306641 91.04736328 C-63.16288873 88.16325795 -66.93846383 85.28710494 -70.72265625 82.421875 C-71.49125977 81.83833252 -72.25986328 81.25479004 -73.05175781 80.65356445 C-74.52188074 79.53763637 -75.99379318 78.42406054 -77.46777344 77.31323242 C-80.87647213 74.72211069 -84.06871926 72.14227267 -87 69 C-81.42582302 63.85347151 -75.63166253 59.07456284 -69.64794922 54.4206543 C-65.04920986 50.83944859 -60.51399097 47.18732451 -56 43.5 C-51.03782876 39.44998822 -46.04830459 35.44214255 -41 31.5 C-35.99941166 27.59262311 -31.04730276 23.63056717 -26.125 19.625 C-25.46741699 19.09044189 -24.80983398 18.55588379 -24.13232422 18.00512695 C-20.57746137 15.11134235 -17.03393635 12.20446186 -13.5 9.28515625 C-12.40147705 8.38192627 -12.40147705 8.38192627 -11.28076172 7.46044922 C-9.86755804 6.29819722 -8.45759849 5.13198685 -7.05126953 3.96142578 C-2.225086 0 -2.225086 0 0 0 Z " fill="#FDFDFD" transform="translate(195,107)"/>
<path d="M0 0 C1.20572771 -0.00453111 2.41145541 -0.00906223 3.65372032 -0.01373065 C6.96067535 -0.02411197 10.26741084 -0.02571591 13.57436621 -0.02334189 C17.1567096 -0.02293036 20.73902167 -0.03400473 24.3213501 -0.04345703 C31.32541189 -0.05999637 38.32944 -0.06556338 45.3335197 -0.06668179 C51.03384358 -0.06763573 56.73415646 -0.07176321 62.43447685 -0.07808304 C78.63627166 -0.09567698 94.83804009 -0.10492493 111.03984452 -0.10342209 C112.34716349 -0.10330222 112.34716349 -0.10330222 113.68089294 -0.10317993 C114.98982931 -0.10305729 114.98982931 -0.10305729 116.32520884 -0.10293217 C130.45321031 -0.10212003 144.58110497 -0.12124441 158.70907558 -0.14945666 C173.2551109 -0.17827187 187.80109429 -0.19199219 202.34715885 -0.19026911 C210.49772625 -0.18960813 218.64818172 -0.19497115 226.79872322 -0.21662521 C233.74048886 -0.23495127 240.68209182 -0.23909171 247.62387133 -0.22560637 C251.15659313 -0.2191334 254.6890039 -0.21874996 258.22169495 -0.23631287 C289.46369982 -0.36303853 315.29509972 4.10527768 338.64646912 26.01742554 C359.51528328 47.9142601 362.9610806 74.32523542 362.85686779 103.28420711 C362.84771863 107.05389497 362.86183527 110.82351219 362.87278748 114.59318542 C362.89047333 121.95535477 362.8867774 129.31736001 362.87513691 136.67953551 C362.86606343 142.66869988 362.86489541 148.65781862 362.86923218 154.64698792 C362.86984511 155.50291364 362.87045804 156.35883937 362.87108955 157.24070224 C362.87236859 158.98008574 362.87366544 160.71946923 362.87497991 162.45885271 C362.88635661 178.72772909 362.87331787 194.99651497 362.85177845 211.26537651 C362.83391012 225.1920488 362.83701505 239.11858768 362.85545349 253.04525757 C362.87691183 269.26021659 362.88525824 285.47509652 362.87300444 301.69006777 C362.87173039 303.42266622 362.8704729 305.15526468 362.86923218 306.88786316 C362.86830652 308.16621025 362.86830652 308.16621025 362.86736217 309.47038254 C362.86392413 315.44483852 362.86970407 321.41924388 362.87915039 327.39369202 C362.89042713 334.68533567 362.88721211 341.97680732 362.86602741 349.26843154 C362.85559265 352.98104038 362.8512637 356.69336359 362.86462402 360.40596962 C362.98345635 396.41109219 362.98345635 396.41109219 354.45896912 411.76742554 C353.93472351 412.75682129 353.93472351 412.75682129 353.39988708 413.76620483 C342.37573017 434.26164268 325.62347409 449.72087114 303.27586365 456.93148804 C291.31145744 460.45748698 279.74081436 461.4189601 267.30549622 461.40113831 C266.13217794 461.40340386 264.95885967 461.40566942 263.74998629 461.40800363 C260.51980556 461.41320966 257.28966016 461.41399353 254.05947661 461.41280925 C250.56510384 461.41260406 247.07073917 461.41813526 243.57637024 461.42286682 C236.73968242 461.43114886 229.90300323 461.43392056 223.06631081 461.4344792 C217.50413766 461.43495558 211.94196733 461.43701643 206.37979507 461.44017982 C190.58271755 461.44898022 174.7856468 461.45360024 158.9885668 461.45284935 C157.71297112 461.45278942 157.71297112 461.45278942 156.41160583 461.45272827 C155.56016076 461.45268739 154.70871569 461.45264651 153.83146925 461.45260439 C140.04333484 461.45219824 126.25522777 461.46176164 112.46710126 461.47586664 C98.28278982 461.49026149 84.09849169 461.49713509 69.91417277 461.49627286 C61.96157782 461.49594193 54.00901153 461.49864305 46.05642319 461.50945091 C39.28358919 461.518597 32.51079684 461.52069771 25.73795931 461.51394149 C22.28887465 461.5106967 18.83986971 461.51054478 15.39079285 461.51929474 C-19.91432614 461.59242926 -19.91432614 461.59242926 -33.91603088 456.57992554 C-34.66562073 456.31937378 -35.41521057 456.05882202 -36.18751526 455.79037476 C-58.3845284 447.75467494 -75.13271391 430.94613434 -85.09571838 409.84164429 C-91.21812883 395.90630707 -92.98103084 381.52049095 -92.91999817 366.40953064 C-92.92311815 365.19533713 -92.92623813 363.98114362 -92.92945266 362.73015636 C-92.93598724 359.40439749 -92.9337206 356.07886883 -92.92748022 352.75312459 C-92.92291614 349.14908889 -92.92995895 345.5450719 -92.93544006 341.94104004 C-92.94429413 334.89801049 -92.94242985 327.85502377 -92.93661478 320.81199259 C-92.93208216 315.08304683 -92.93149228 309.35411299 -92.93366241 303.62516594 C-92.93396888 302.80711135 -92.93427535 301.98905677 -92.9345911 301.14621265 C-92.93523061 299.48389109 -92.93587904 297.82156954 -92.93653628 296.15924799 C-92.94222799 280.60199577 -92.93570011 265.04476718 -92.92493555 249.48751884 C-92.91600278 236.1656888 -92.91755208 222.84389362 -92.92677307 209.52206421 C-92.93749913 194.01875563 -92.94167702 178.51546773 -92.93554854 163.01215595 C-92.93491151 161.3559376 -92.93428276 159.69971925 -92.93366241 158.0435009 C-92.93335386 157.22880066 -92.93304531 156.41410042 -92.93272741 155.5747123 C-92.93100734 149.85935371 -92.9339007 144.14400835 -92.93862152 138.42865181 C-92.94425645 131.45386234 -92.94265943 124.47911783 -92.93206003 117.50433344 C-92.92683799 113.95206032 -92.92468664 110.3998619 -92.93135834 106.84758949 C-92.98308982 76.81657135 -90.57724728 49.2356671 -68.33399963 26.87289429 C-67.45356995 26.0130896 -66.57314026 25.15328491 -65.66603088 24.26742554 C-64.6083551 23.17881226 -64.6083551 23.17881226 -63.52931213 22.06820679 C-46.54516974 5.60167635 -22.97356822 -0.06467287 0 0 Z M-37.85353088 17.95492554 C-38.51933167 18.30232788 -39.18513245 18.64973022 -39.87110901 19.00765991 C-58.13104551 28.78033567 -71.59651603 43.71328966 -78.66603088 63.26742554 C-81.13549954 72.37228603 -82.10121483 81.04340599 -82.04025269 90.44921875 C-82.04422709 91.69819738 -82.0482015 92.94717601 -82.05229634 94.23400247 C-82.06018359 97.65686887 -82.05483539 101.07922391 -82.04354584 104.50204754 C-82.03462735 108.21032451 -82.04316915 111.91856952 -82.04940796 115.62684631 C-82.05885327 122.87343079 -82.05233403 130.11991506 -82.04014502 137.36649205 C-82.02646383 145.8177199 -82.02816821 154.26892441 -82.03027835 162.72016053 C-82.03346191 177.80494641 -82.02183626 192.88968494 -82.00221252 207.97445679 C-81.98320434 222.59003135 -81.97612755 237.20555044 -81.98170471 251.82113647 C-81.9877708 267.76499875 -81.98757076 283.7088367 -81.97621888 299.65269697 C-81.97501168 301.35463993 -81.97380569 303.05658289 -81.97260094 304.75852585 C-81.9719974 305.59576111 -81.97139386 306.43299636 -81.97077203 307.29560239 C-81.96690308 313.17767842 -81.96728251 319.05974536 -81.96918678 324.94182205 C-81.97131501 332.1146954 -81.96603707 339.28752034 -81.95157323 346.46038009 C-81.94436018 350.11556643 -81.94022566 353.77068249 -81.94481659 357.42587471 C-81.94968301 361.39716308 -81.93892153 365.36832514 -81.92672729 369.33959961 C-81.93050662 370.48183507 -81.93428594 371.62407052 -81.93817979 372.80091918 C-81.81787021 395.0321711 -73.93031059 413.58998149 -58.47853088 429.54476929 C-42.98954047 444.53897251 -23.55200004 450.4121297 -2.51824951 450.42132568 C-0.68460444 450.42789906 -0.68460444 450.42789906 1.18608397 450.43460524 C4.56740272 450.4456291 7.94867551 450.45220492 11.33000553 450.45678639 C14.98194036 450.46276588 18.63385841 450.47436985 22.28578186 450.4850769 C31.10022588 450.50954859 39.91467543 450.524221 48.72914293 450.53713697 C51.22172116 450.54085293 53.71429884 450.54482583 56.20687652 450.54888964 C71.70886189 450.57413179 87.21084824 450.59616952 102.71284962 450.60861778 C106.30001644 450.61154714 109.88718323 450.61450885 113.47434998 450.61752319 C114.36584492 450.61826924 115.25733987 450.61901529 116.17584982 450.61978395 C130.5998254 450.63242278 145.02367731 450.66562914 159.44759516 450.70732503 C174.28044724 450.74984897 189.1132362 450.7733249 203.94614905 450.77853835 C212.26445459 450.78194077 220.58256691 450.79355712 228.90081215 450.82664108 C235.98881651 450.85478702 243.07658798 450.86557773 250.16464386 450.85444562 C253.77410862 450.8492957 257.38308683 450.85190269 260.99247932 450.87691116 C286.83004954 451.04599643 308.63883101 447.60143678 328.55662537 430.00961304 C335.84377738 422.81470345 341.27477655 415.07159839 345.77146912 405.89242554 C346.08954529 405.25812622 346.40762146 404.6238269 346.7353363 403.9703064 C353.82152026 388.53363818 352.77153661 371.50106594 352.72614312 354.93139696 C352.71929299 351.22583942 352.72986299 347.52032271 352.73808289 343.81477356 C352.75135865 336.57534912 352.74857036 329.33601848 352.73984496 322.0965905 C352.73304547 316.2093711 352.73216144 310.32217781 352.73541641 304.4349556 C352.73587611 303.59425617 352.73633581 302.75355673 352.73680944 301.88738156 C352.7377687 300.17907407 352.73874134 298.47076659 352.73972721 296.76245911 C352.74826279 280.77890981 352.73847528 264.79541229 352.72232611 248.81187148 C352.7089197 235.1192959 352.71125725 221.42679663 352.7250824 207.73422241 C352.74116221 191.80132627 352.74744413 175.86847539 352.73824561 159.93557227 C352.73729004 158.2344695 352.73634692 156.53336673 352.73541641 154.83226395 C352.73472217 153.57706461 352.73472217 153.57706461 352.73401391 152.29650771 C352.73143158 146.42039196 352.73577851 140.54430509 352.74285507 134.66819382 C352.7512968 127.50157904 352.74893382 120.33506276 352.73301284 113.16845916 C352.72516666 109.51715888 352.72197561 105.8660224 352.7319603 102.21472359 C352.74264841 98.24598346 352.72982649 94.27750746 352.71492004 90.30877686 C352.72161221 89.17013636 352.72830437 88.03149586 352.73519933 86.85835111 C352.57860178 65.25866978 343.53920419 47.27176031 328.89646912 31.73617554 C313.2179509 16.63126165 293.25265651 11.1108096 272.07698059 11.12698364 C270.85495741 11.12401252 269.63293422 11.1210414 268.37388003 11.11798024 C264.99849563 11.11082994 261.62316216 11.10812327 258.24777389 11.10738277 C254.60070848 11.10552412 250.95365392 11.09797277 247.30659485 11.09124756 C239.33944202 11.07769691 231.37229425 11.07164469 223.40513182 11.0672369 C218.42524961 11.06446908 213.44536933 11.06023076 208.46548843 11.05573273 C194.66261352 11.04354459 180.85974015 11.03324421 167.05685997 11.02985764 C166.17437943 11.02963807 165.29189889 11.0294185 164.38267652 11.02919228 C163.49815335 11.02897401 162.61363019 11.02875573 161.70230329 11.02853084 C159.91009164 11.02808738 158.11787999 11.02764082 156.32566833 11.02719116 C154.99218622 11.02685902 154.99218622 11.02685902 153.63176508 11.02652016 C139.23428724 11.02257403 124.83686007 11.00512358 110.43940179 10.98183164 C95.63817649 10.95808084 80.83697657 10.9456541 66.03573191 10.94448972 C57.73327473 10.94357508 49.43088359 10.93787612 41.12844467 10.9196701 C34.05758734 10.90421873 26.98681648 10.89917824 19.91594546 10.90740821 C16.31316622 10.9112969 12.71056084 10.9104731 9.10780334 10.89635086 C5.18941517 10.88113285 1.27126747 10.88953102 -2.6471405 10.89993286 C-3.76818825 10.89187646 -4.889236 10.88382005 -6.0442549 10.87551951 C-17.06895017 10.94354738 -28.06878947 12.67011868 -37.85353088 17.95492554 Z " fill="#020202" transform="translate(117.66603088378906,23.732574462890625)"/>
<path d="M0 0 C0 17.49 0 34.98 0 53 C9.92126953 52.98259766 9.92126953 52.98259766 20.04296875 52.96484375 C24.27669371 52.95972382 28.51041476 52.95490911 32.74414062 52.95117188 C39.43856618 52.94523412 46.13297784 52.93827203 52.82739258 52.92456055 C58.23502567 52.91355616 63.64264381 52.9076867 69.05028725 52.90512276 C71.09554593 52.90329968 73.14080396 52.89974128 75.18605614 52.89426994 C85.63241223 52.86748031 96.05617277 52.95971616 106.4934082 53.42797852 C107.34898662 53.46473914 108.20456503 53.50149977 109.08607006 53.53937435 C115.96672256 53.88613531 122.40199097 54.97181824 129 57 C130.06605469 57.31582031 131.13210938 57.63164062 132.23046875 57.95703125 C148.17330094 63.14900077 162.8630184 71.66085305 176 82 C176.85464844 82.66733154 176.85464844 82.66733154 177.7265625 83.34814453 C188.04999222 91.49289079 195.62521394 100.26216501 202.25 111.625 C202.6627417 112.31021729 203.0754834 112.99543457 203.50073242 113.70141602 C210.2002511 125.68165175 211.61473556 139.02693395 211.4609375 152.515625 C211.45853943 153.94699943 211.45765061 155.37837707 211.4581604 156.80975342 C211.45506617 159.78467037 211.43877632 162.75909394 211.41162109 165.73388672 C211.37776628 169.48315578 211.37018686 173.23188959 211.3712244 176.98129272 C211.36970837 202.80752426 211.36970837 202.80752426 210.17578125 215.515625 C210.10873993 216.26048157 210.04169861 217.00533813 209.97262573 217.77276611 C207.14297209 242.97406145 188.41877008 266.37656636 169.41113281 281.86547852 C161.80910619 287.85491885 153.54224921 292.49773218 145 297 C143.42025391 297.85078125 143.42025391 297.85078125 141.80859375 298.71875 C134.45967497 302.55467032 126.88062625 305.44412121 119 308 C117.94648566 308.34727583 116.89297132 308.69455166 115.80753231 309.052351 C111.7164049 310.07058341 107.9372422 310.27350564 103.75526428 310.24050903 C102.55185376 310.24307231 102.55185376 310.24307231 101.32413191 310.24568737 C98.65097265 310.24896686 95.97806755 310.23800411 93.30493164 310.22705078 C91.38274135 310.22648633 89.46055063 310.22680388 87.5383606 310.22793579 C82.33022561 310.22850899 77.12218297 310.21675984 71.91406941 310.20278788 C66.46749291 310.19027519 61.02091422 310.18910959 55.57432556 310.18673706 C45.26495021 310.18052388 34.95561734 310.16411523 24.64626068 310.14403808 C12.90751264 310.12167406 1.16876256 310.11068438 -10.57000148 310.10064721 C-34.71336329 310.07974888 -58.85666687 310.04307464 -83 310 C-83 284.59 -83 259.18 -83 233 C-77.41263916 232.98541748 -71.82527832 232.97083496 -66.06860352 232.95581055 C-47.61639438 232.90549347 -29.16426939 232.83905358 -10.7121439 232.76428509 C0.47631831 232.71934337 11.6647488 232.6799249 22.85327148 232.65356445 C32.60659903 232.63057129 42.35982607 232.59715841 52.11307389 232.55129844 C57.27606031 232.52738412 62.43894731 232.50864356 67.60198784 232.50238609 C72.46522888 232.4963272 77.32821559 232.47629808 82.19136238 232.44572449 C83.97266497 232.43695719 85.75400081 232.43321896 87.5353241 232.43499184 C104.05099799 232.44623564 114.37321357 229.08331428 126.8125 217.6875 C134.66535801 209.43822368 138.30133754 198.9990434 138.3359375 187.7578125 C138.3425943 186.99000458 138.3492511 186.22219666 138.35610962 185.43112183 C138.36617809 183.81592178 138.37092845 182.20068062 138.37060547 180.58544922 C138.37497627 178.13828788 138.41134802 175.69293667 138.44921875 173.24609375 C138.50856142 165.17337823 138.50943578 158.00321526 134 151 C133.38640625 149.98550781 132.7728125 148.97101563 132.140625 147.92578125 C124.24644196 137.01419354 115.48737882 131.12850437 102.03151321 128.63525772 C99.96452449 128.33750919 97.8994919 128.09130255 95.82275391 127.87158203 C95.04800531 127.78834749 94.27325672 127.70511295 93.4750309 127.61935616 C84.06165901 126.69680993 74.6595711 126.74968401 65.2109375 126.8046875 C63.28610381 126.80843003 61.36126818 126.81127111 59.43643188 126.81326294 C54.4356129 126.82080197 49.43491506 126.84036352 44.43414307 126.8626709 C38.39904279 126.88699384 32.3639014 126.89595676 26.32876587 126.90757751 C17.21909368 126.92679623 8.1096859 126.96518591 -1 127 C-1 142.51 -1 158.02 -1 174 C-3.86700978 172.56649511 -5.91622568 171.42674946 -8.37109375 169.5234375 C-9.01691406 169.02585937 -9.66273438 168.52828125 -10.328125 168.015625 C-11.02421875 167.47421875 -11.7203125 166.9328125 -12.4375 166.375 C-13.96721497 165.19501045 -15.49717409 164.01533737 -17.02734375 162.8359375 C-17.8354248 162.21170898 -18.64350586 161.58748047 -19.47607422 160.94433594 C-23.80316726 157.61090887 -28.15268727 154.30698466 -32.5 151 C-42.35837358 143.49282033 -52.20262124 135.96730564 -62.04296875 128.43652344 C-64.11184517 126.85334039 -66.18086714 125.27034789 -68.25 123.6875 C-68.93835938 123.16091797 -69.62671875 122.63433594 -70.3359375 122.09179688 C-75.2240729 118.35407429 -80.11761327 114.62350121 -85.01391602 110.89648438 C-86.82265093 109.51883101 -88.63044809 108.13994549 -90.43725586 106.75976562 C-94.3490151 103.77229932 -98.26525223 100.79400763 -102.22265625 97.8671875 C-102.83850586 97.40723389 -103.45435547 96.94728027 -104.08886719 96.47338867 C-105.68601204 95.28186431 -107.28998952 94.09951342 -108.89453125 92.91796875 C-109.58933594 92.28503906 -110.28414063 91.65210938 -111 91 C-111 90.01 -111 89.02 -111 88 C-109.16982449 86.20022608 -107.36468891 84.60658814 -105.375 83 C-104.49581909 82.27369385 -104.49581909 82.27369385 -103.59887695 81.53271484 C-98.93920569 77.70466332 -94.20215587 73.97320491 -89.44482422 70.26757812 C-84.91446913 66.73691392 -80.44877629 63.13276651 -76 59.5 C-70.47674994 54.99222351 -64.90815183 50.55157061 -59.2890625 46.1640625 C-54.12398193 42.12080938 -49.04000757 37.98152753 -43.95874023 33.83374023 C-39.6968906 30.36106493 -35.39868522 26.94174261 -31.0625 23.5625 C-24.17461387 18.19104768 -17.44185098 12.63724654 -10.71484375 7.06640625 C-9.75360596 6.27387451 -9.75360596 6.27387451 -8.77294922 5.46533203 C-7.21882598 4.18085838 -5.67315495 2.88617225 -4.12890625 1.58984375 C-2 0 -2 0 0 0 Z M-17.75 24.8125 C-22.33121805 28.76453514 -26.96918505 32.60440965 -31.75 36.3125 C-37.07618727 40.4525091 -42.30548592 44.69602404 -47.5 49 C-53.18852713 53.71082148 -58.92778396 58.33964291 -64.75292969 62.88012695 C-69.98751774 66.96805524 -75.1456436 71.14689502 -80.28540039 75.35327148 C-83.24175769 77.77091641 -86.20195914 80.17422201 -89.234375 82.49609375 C-90.14703125 83.19863281 -91.0596875 83.90117187 -92 84.625 C-93.175625 85.51058594 -93.175625 85.51058594 -94.375 86.4140625 C-95.179375 87.19910156 -95.179375 87.19910156 -96 88 C-96 88.99 -96 89.98 -96 91 C-94.41591267 92.59794946 -94.41591267 92.59794946 -92.2578125 94.08203125 C-91.04363647 94.97426392 -91.04363647 94.97426392 -89.80493164 95.88452148 C-88.47836548 96.83887085 -88.47836548 96.83887085 -87.125 97.8125 C-85.27108373 99.17304727 -83.41823954 100.53505645 -81.56640625 101.8984375 C-80.62812988 102.58647461 -79.68985352 103.27451172 -78.72314453 103.98339844 C-74.78315103 106.90112717 -70.91941127 109.91127454 -67.0625 112.9375 C-57.94956687 120.06416416 -48.74622463 127.06928431 -39.53662109 134.0703125 C-35.60359992 137.06228549 -31.6759999 140.06132237 -27.75 143.0625 C-27.05511475 143.59327148 -26.36022949 144.12404297 -25.64428711 144.67089844 C-21.22286007 148.05202139 -16.827463 151.46395727 -12.46875 154.92578125 C-11.16875128 156.09838991 -11.16875128 156.09838991 -10 156 C-10 143.46 -10 130.92 -10 118 C2.04104671 117.97726124 14.08207878 117.95897739 26.12314224 117.94818783 C31.71638039 117.94300518 37.30960289 117.93599317 42.90283203 117.92456055 C48.31694438 117.91356535 53.73104182 117.90768855 59.14516449 117.90512276 C61.19404077 117.90329808 63.24291639 117.89973633 65.29178619 117.89426994 C75.55314414 117.86802205 85.79516162 117.94302159 96.04736328 118.41040039 C96.86375904 118.44480445 97.6801548 118.47920851 98.52128983 118.51465511 C104.65106826 118.83310628 110.00563171 119.95197091 115.625 122.5 C116.45346436 122.85529785 117.28192871 123.2105957 118.13549805 123.57666016 C131.10733057 129.43309297 139.69482679 139.80130877 145.17578125 152.796875 C145.44777344 153.52390625 145.71976563 154.2509375 146 155 C146.341521 155.88099365 146.68304199 156.7619873 147.03491211 157.66967773 C148.12191753 161.42071263 148.25882014 164.58545 148.265625 168.48828125 C148.26753845 169.19091599 148.2694519 169.89355072 148.27142334 170.61747742 C148.27277775 172.09744629 148.26913355 173.57742734 148.26074219 175.05737305 C148.25008008 177.29568909 148.26063742 179.53319378 148.2734375 181.77148438 C148.28689402 192.55331386 147.29021951 201.39896062 142.3125 211.0625 C141.95583252 211.75859375 141.59916504 212.4546875 141.23168945 213.171875 C134.34986046 226.21080805 122.99710349 234.71713391 109.35036278 240.03191185 C105.64488999 241.10260913 102.26384716 241.2892923 98.44497681 241.2784729 C97.70481083 241.2842653 96.96464486 241.2900577 96.20204961 241.29602563 C93.73312505 241.31296952 91.26438806 241.31589726 88.79541016 241.31884766 C87.02114405 241.32814971 85.24688231 241.3383188 83.47262573 241.34928894 C78.66322631 241.37657171 73.85385616 241.39173328 69.04439974 241.40471697 C64.01551745 241.42035501 58.98669486 241.4471431 53.95785522 241.4727478 C44.43826549 241.51952363 34.91866452 241.55627356 25.39901865 241.58942068 C14.55987107 241.62765048 3.72078346 241.67705842 -7.11831355 241.72740483 C-29.41217026 241.83070694 -51.7060522 241.91849738 -74 242 C-74 261.47 -74 280.94 -74 301 C-50.58979792 301.05747875 -50.58979792 301.05747875 -27.1796875 301.0546875 C-26.33100979 301.05332668 -25.48233208 301.05196587 -24.60793686 301.05056381 C0.048886 301.00756757 24.70535989 300.90084136 49.36166382 300.73654175 C54.57586539 300.70233135 59.79003299 300.67512738 65.00430298 300.65383911 C71.23937905 300.62799591 77.4742048 300.58772308 83.70912552 300.53687668 C86.02984217 300.52029652 88.35060033 300.50867506 90.67136765 300.50236893 C93.88298478 300.49271839 97.09396183 300.46470324 100.30541992 300.43237305 C101.69435062 300.43452615 101.69435062 300.43452615 103.11134052 300.43672276 C109.77657734 300.34191077 115.65664565 299.00233099 122 297 C123.62615234 296.48759766 123.62615234 296.48759766 125.28515625 295.96484375 C154.42666717 285.18535378 180.52174482 264.56226695 194.4140625 236.46875 C196.44041576 232.03672611 197.96865115 227.75826857 199 223 C199.28617187 221.71416016 199.28617187 221.71416016 199.578125 220.40234375 C201.90821168 208.83512771 202.16074248 197.07951428 202.203125 185.31640625 C202.20882507 184.05843735 202.21452515 182.80046844 202.22039795 181.50437927 C202.22977695 178.86319807 202.23635336 176.22200555 202.24023438 173.58081055 C202.24462967 170.90358939 202.25858458 168.22668859 202.28125 165.54956055 C202.31195013 161.638412 202.3223054 157.72766235 202.328125 153.81640625 C202.3466452 152.05013634 202.3466452 152.05013634 202.36553955 150.2481842 C202.33611053 139.0868315 200.83585342 128.13801917 195.3125 118.3125 C194.79139648 117.3853418 194.79139648 117.3853418 194.25976562 116.43945312 C189.03540472 107.33682792 183.29351868 99.49119204 175 93 C174.06542969 92.23042969 173.13085938 91.46085937 172.16796875 90.66796875 C155.8896811 77.46783193 136.72805741 67.52241499 116 64 C114.83076728 63.74050992 114.83076728 63.74050992 113.6379137 63.47577763 C110.96298679 62.99332425 108.5209839 62.87692525 105.80509949 62.87974548 C104.78011353 62.87837082 103.75512756 62.87699615 102.69908142 62.87557983 C101.58561844 62.87917511 100.47215546 62.88277039 99.32495117 62.88647461 C98.144039 62.88632858 96.96312683 62.88618256 95.74642944 62.8860321 C92.51747225 62.88660847 89.28855866 62.89161611 86.05961013 62.89860606 C82.68169454 62.90486677 79.30377804 62.90544555 75.92585754 62.90663147 C69.53343373 62.90973678 63.14102706 62.91793937 56.74861079 62.92798096 C49.46931287 62.93916696 42.19001412 62.94465881 34.91070974 62.94967639 C19.94046204 62.96012266 4.97023661 62.97845818 -10 63 C-10 48.81 -10 34.62 -10 20 C-13.32348687 20 -15.35291318 22.70819519 -17.75 24.8125 Z " fill="#060606" transform="translate(205,87)"/>
</svg>
