<svg xmlns="http://www.w3.org/2000/svg" xmlns:xlink="http://www.w3.org/1999/xlink" width="500" zoomAndPan="magnify" viewBox="0 0 375 374.999991" height="500" preserveAspectRatio="xMidYMid meet" version="1.0"><defs><clipPath id="f575cc2ee8"><path d="M 7.339844 8 L 369.589844 8 L 369.589844 369.589844 L 7.339844 369.589844 Z M 7.339844 8 " clip-rule="nonzero"/></clipPath></defs><g clip-path="url(#f575cc2ee8)"><path fill="#ffffff" d="M 369.566406 58.132812 C 369.566406 44.976562 364.417969 32.585938 355.078125 23.433594 C 335.632812 3.988281 303.984375 3.988281 284.539062 23.433594 L 263.949219 44.023438 L 42.609375 44.023438 C 33.078125 44.023438 24.308594 47.644531 17.632812 54.320312 C 10.960938 60.992188 7.339844 69.953125 7.339844 79.292969 L 7.339844 333.804688 C 7.339844 343.335938 10.960938 352.105469 17.632812 358.78125 C 24.308594 365.453125 33.265625 369.074219 42.609375 369.074219 L 297.121094 369.074219 C 306.652344 369.074219 315.421875 365.453125 322.09375 358.78125 C 328.769531 352.105469 332.390625 343.148438 332.390625 333.804688 L 332.390625 115.324219 L 354.886719 92.828125 C 364.417969 83.679688 369.566406 71.285156 369.566406 58.132812 Z M 179.875 248.207031 L 159.855469 228.1875 L 274.816406 113.226562 C 277.484375 110.558594 277.484375 105.984375 274.816406 103.316406 C 272.144531 100.644531 267.570312 100.644531 264.902344 103.316406 L 149.941406 218.273438 L 129.925781 198.066406 L 275.003906 52.984375 L 324.953125 102.933594 Z M 124.96875 213.125 L 165.003906 253.164062 L 118.296875 259.835938 Z M 318.472656 333.996094 C 318.472656 339.714844 316.183594 345.054688 312.179688 349.058594 C 308.179688 353.058594 302.839844 355.347656 297.121094 355.347656 L 42.609375 355.347656 C 36.890625 355.347656 31.550781 353.058594 27.546875 349.058594 C 23.542969 345.054688 21.257812 339.714844 21.257812 333.996094 L 21.257812 79.292969 C 21.257812 73.574219 23.542969 68.234375 27.546875 64.230469 C 31.550781 60.230469 36.890625 57.941406 42.609375 57.941406 L 249.839844 57.941406 L 114.863281 193.109375 C 114.292969 193.679688 113.71875 194.441406 113.527344 195.207031 C 113.339844 195.398438 113.339844 195.777344 113.339844 195.96875 C 113.148438 196.351562 113.148438 196.730469 112.957031 196.921875 L 103.042969 266.886719 C 102.664062 269.175781 103.425781 271.273438 104.949219 272.796875 C 106.285156 274.132812 108 274.894531 109.90625 274.894531 C 110.289062 274.894531 110.480469 274.894531 110.859375 274.894531 L 180.828125 264.980469 C 181.207031 264.980469 181.589844 264.792969 181.78125 264.601562 C 181.96875 264.601562 182.351562 264.410156 182.542969 264.410156 C 183.304688 264.027344 184.066406 263.648438 184.640625 263.074219 L 318.28125 129.433594 L 318.28125 333.996094 Z M 334.867188 93.210938 L 284.917969 43.070312 L 294.640625 33.347656 C 301.316406 26.675781 310.273438 22.863281 319.808594 22.863281 C 329.339844 22.863281 338.300781 26.484375 344.972656 33.347656 C 351.644531 40.019531 355.265625 48.789062 355.265625 58.132812 C 355.265625 67.472656 351.644531 76.242188 344.972656 82.914062 Z M 334.867188 93.210938 " fill-opacity="1" fill-rule="nonzero"/></g></svg>