<svg version="1.1" id="Layer_1" xmlns="http://www.w3.org/2000/svg" xmlns:xlink="http://www.w3.org/1999/xlink" x="0px" y="0px"
	 width="100%" viewBox="0 0 612 612" enable-background="new 0 0 612 612" xml:space="preserve">
<path fill="#D8D2D4" opacity="1.000000" stroke="none" 
	d="
M342.000000,613.000000 
	C228.000015,613.000000 114.500038,613.000000 1.000046,613.000000 
	C1.000031,409.000061 1.000031,205.000107 1.000015,1.000128 
	C204.999893,1.000085 408.999786,1.000085 612.999756,1.000043 
	C612.999878,204.999878 612.999878,408.999756 612.999939,612.999817 
	C522.833313,613.000000 432.666656,613.000000 342.000000,613.000000 
M385.500000,96.131119 
	C281.676544,96.130608 177.853073,96.131622 74.029617,96.127487 
	C62.109138,96.127014 59.272087,98.938660 59.272034,110.837593 
	C59.271439,243.324905 59.271240,375.812225 59.274200,508.299530 
	C59.274273,511.465790 59.252094,514.633789 59.344620,517.797913 
	C59.540218,524.486755 62.943661,527.942627 69.508347,528.191589 
	C70.839935,528.242126 72.174446,528.222900 73.507614,528.222900 
	C226.492966,528.222656 379.478333,528.222290 532.463684,528.217651 
	C542.938477,528.217346 545.732727,525.428345 545.733643,514.807190 
	C545.744751,379.820129 545.744324,244.833054 545.735107,109.845978 
	C545.734375,99.255814 542.571899,96.133392 531.986084,96.132622 
	C483.490723,96.129074 434.995361,96.131218 385.500000,96.131119 
z"/>
<path fill="#707070" opacity="1.000000" stroke="none" 
	d="
M386.000000,96.131226 
	C434.995361,96.131218 483.490723,96.129074 531.986084,96.132622 
	C542.571899,96.133392 545.734375,99.255814 545.735107,109.845978 
	C545.744324,244.833054 545.744751,379.820129 545.733643,514.807190 
	C545.732727,525.428345 542.938477,528.217346 532.463684,528.217651 
	C379.478333,528.222290 226.492966,528.222656 73.507614,528.222900 
	C72.174446,528.222900 70.839935,528.242126 69.508347,528.191589 
	C62.943661,527.942627 59.540218,524.486755 59.344620,517.797913 
	C59.252094,514.633789 59.274273,511.465790 59.274200,508.299530 
	C59.271240,375.812225 59.271439,243.324905 59.272034,110.837593 
	C59.272087,98.938660 62.109138,96.127014 74.029617,96.127487 
	C177.853073,96.131622 281.676544,96.130608 386.000000,96.131226 
M370.500000,111.725128 
	C274.014557,111.722694 177.529099,111.733810 81.043694,111.669357 
	C77.093338,111.666718 74.725914,111.812767 74.737289,117.092056 
	C74.919823,201.745758 74.872131,286.399933 74.894524,371.054016 
	C74.894882,372.418152 75.116653,373.782227 75.277557,375.635315 
	C83.036057,370.127411 90.233002,365.053467 97.393654,359.928833 
	C141.811554,328.140564 186.249359,296.379822 230.573776,264.461670 
	C233.696701,262.212860 235.642487,262.198120 238.747162,264.408691 
	C280.795532,294.347382 322.982788,324.091095 365.006805,354.063721 
	C368.557434,356.596100 370.729919,356.383057 374.023804,353.797302 
	C414.501984,322.021545 455.083191,290.376892 495.669006,258.738434 
	C499.570801,255.696808 503.723633,250.603241 507.684021,250.674576 
	C511.690796,250.746750 515.630005,256.020508 519.548706,259.079865 
	C522.823486,261.636475 526.026001,264.285583 530.141479,267.604126 
	C530.141479,264.530304 530.141479,263.043243 530.141479,261.556183 
	C530.140686,213.896530 530.140625,166.236877 530.138428,118.577217 
	C530.138123,111.733406 530.133362,111.726723 523.477661,111.726433 
	C472.818451,111.724243 422.159210,111.724869 370.500000,111.725128 
z"/>
<path fill="#D8D2D4" opacity="1.000000" stroke="none" 
	d="
M371.000000,111.724869 
	C422.159210,111.724869 472.818451,111.724243 523.477661,111.726433 
	C530.133362,111.726723 530.138123,111.733406 530.138428,118.577217 
	C530.140625,166.236877 530.140686,213.896530 530.141479,261.556183 
	C530.141479,263.043243 530.141479,264.530304 530.141479,267.604126 
	C526.026001,264.285583 522.823486,261.636475 519.548706,259.079865 
	C515.630005,256.020508 511.690796,250.746750 507.684021,250.674576 
	C503.723633,250.603241 499.570801,255.696808 495.669006,258.738434 
	C455.083191,290.376892 414.501984,322.021545 374.023804,353.797302 
	C370.729919,356.383057 368.557434,356.596100 365.006805,354.063721 
	C322.982788,324.091095 280.795532,294.347382 238.747162,264.408691 
	C235.642487,262.198120 233.696701,262.212860 230.573776,264.461670 
	C186.249359,296.379822 141.811554,328.140564 97.393654,359.928833 
	C90.233002,365.053467 83.036057,370.127411 75.277557,375.635315 
	C75.116653,373.782227 74.894882,372.418152 74.894524,371.054016 
	C74.872131,286.399933 74.919823,201.745758 74.737289,117.092056 
	C74.725914,111.812767 77.093338,111.666718 81.043694,111.669357 
	C177.529099,111.733810 274.014557,111.722694 371.000000,111.724869 
M375.490692,244.098541 
	C404.507904,248.859436 429.665558,224.540512 426.168732,195.110046 
	C423.726044,174.551376 408.316742,159.291336 387.064850,156.384964 
	C368.712738,153.875153 349.116547,165.422928 341.669556,183.206680 
	C330.506317,209.865128 347.211212,239.194000 375.490692,244.098541 
z"/>
<path fill="#707070" opacity="1.000000" stroke="none" 
	d="
M375.067993,244.045547 
	C347.211212,239.194000 330.506317,209.865128 341.669556,183.206680 
	C349.116547,165.422928 368.712738,153.875153 387.064850,156.384964 
	C408.316742,159.291336 423.726044,174.551376 426.168732,195.110046 
	C429.665558,224.540512 404.507904,248.859436 375.067993,244.045547 
z"/>
</svg>