<svg width="43" height="43" viewBox="0 0 43 43" fill="none" xmlns="http://www.w3.org/2000/svg">
<path d="M40.3125 21.5C40.3136 21.9562 40.1966 22.405 39.9729 22.8027C39.7492 23.2003 39.4264 23.5333 39.0359 23.7693L14.835 38.574C14.427 38.8239 13.9597 38.9603 13.4813 38.9691C13.0029 38.978 12.5309 38.859 12.1139 38.6244C11.7009 38.3935 11.3568 38.0567 11.1171 37.6487C10.8774 37.2407 10.7507 36.7763 10.75 36.3031V6.69691C10.7507 6.22372 10.8774 5.75925 11.1171 5.35127C11.3568 4.94328 11.7009 4.60651 12.1139 4.37559C12.5309 4.14101 13.0029 4.02201 13.4813 4.03087C13.9597 4.03973 14.427 4.17613 14.835 4.42598L39.0359 19.2307C39.4264 19.4667 39.7492 19.7997 39.9729 20.1973C40.1966 20.595 40.3136 21.0438 40.3125 21.5Z" fill="black"/>
</svg>
