<svg xmlns="http://www.w3.org/2000/svg" xmlns:xlink="http://www.w3.org/1999/xlink" width="500" zoomAndPan="magnify" viewBox="0 0 375 374.999991" height="500" preserveAspectRatio="xMidYMid meet" version="1.0"><defs><clipPath id="2b82754d49"><path d="M 12.644531 13.082031 L 362.144531 13.082031 L 362.144531 362.582031 L 12.644531 362.582031 Z M 12.644531 13.082031 " clip-rule="nonzero"/></clipPath></defs><g clip-path="url(#2b82754d49)"><path fill="#bfbdbc" d="M 362.144531 187.832031 C 362.144531 284.34375 283.90625 362.578125 187.398438 362.578125 C 90.886719 362.578125 12.652344 284.34375 12.652344 187.832031 C 12.652344 91.324219 90.886719 13.085938 187.398438 13.085938 C 283.90625 13.085938 362.144531 91.324219 362.144531 187.832031 " fill-opacity="1" fill-rule="nonzero"/></g><path fill="#ffffff" d="M 249.472656 132.59375 C 249.472656 166.996094 221.578125 194.886719 187.171875 194.886719 C 152.769531 194.886719 124.875 166.996094 124.875 132.59375 C 124.875 98.183594 152.769531 70.292969 187.171875 70.292969 C 221.578125 70.292969 249.472656 98.183594 249.472656 132.59375 " fill-opacity="1" fill-rule="nonzero"/><path fill="#ffffff" d="M 187.171875 354.285156 C 231.257812 354.285156 271.519531 337.953125 302.265625 311.019531 C 292.722656 248.703125 264.621094 205.460938 187.171875 205.460938 C 111.902344 205.460938 82.765625 248.886719 72.53125 311.417969 C 103.214844 338.117188 143.304688 354.285156 187.171875 354.285156 " fill-opacity="1" fill-rule="nonzero"/></svg>