<svg xmlns="http://www.w3.org/2000/svg" xmlns:xlink="http://www.w3.org/1999/xlink" width="500" zoomAndPan="magnify" viewBox="0 0 375 374.999991" height="500" preserveAspectRatio="xMidYMid meet" version="1.0"><defs><clipPath id="83e4266363"><path d="M 28 3.304688 L 346.691406 3.304688 L 346.691406 371.554688 L 28 371.554688 Z M 28 3.304688 " clip-rule="nonzero"/></clipPath></defs><g clip-path="url(#83e4266363)"><path fill="#ffffff" d="M 321.078125 43.1875 L 267.980469 43.1875 L 267.980469 35.605469 C 267.980469 17.828125 253.515625 3.359375 235.734375 3.359375 L 138.847656 3.359375 C 121.066406 3.359375 106.601562 17.828125 106.601562 35.605469 L 106.601562 43.1875 L 53.503906 43.1875 C 39.597656 43.1875 28.273438 54.503906 28.273438 68.414062 L 28.273438 80.375 C 28.273438 93.394531 38.191406 104.140625 50.863281 105.464844 L 76.84375 333.441406 C 79.320312 355.214844 97.71875 371.632812 119.636719 371.632812 L 254.945312 371.632812 C 276.859375 371.632812 295.257812 355.214844 297.734375 333.441406 L 323.714844 105.464844 C 336.390625 104.144531 346.304688 93.394531 346.304688 80.375 L 346.304688 68.414062 C 346.304688 54.503906 334.984375 43.1875 321.074219 43.1875 Z M 122.980469 35.605469 C 122.980469 26.851562 130.097656 19.734375 138.851562 19.734375 L 235.738281 19.734375 C 244.496094 19.734375 251.613281 26.851562 251.613281 35.605469 L 251.613281 43.1875 L 122.980469 43.1875 Z M 281.472656 331.589844 C 279.9375 345.082031 268.535156 355.257812 254.953125 355.257812 L 119.644531 355.257812 C 106.0625 355.257812 94.65625 345.082031 93.121094 331.589844 L 67.371094 105.605469 L 307.226562 105.605469 L 281.476562 331.589844 Z M 329.941406 80.375 C 329.941406 85.257812 325.964844 89.234375 321.082031 89.234375 L 53.503906 89.234375 C 48.621094 89.234375 44.648438 85.257812 44.648438 80.375 L 44.648438 68.414062 C 44.648438 63.535156 48.621094 59.5625 53.503906 59.5625 L 321.074219 59.5625 C 325.957031 59.5625 329.933594 63.535156 329.933594 68.414062 L 329.933594 80.375 Z M 329.941406 80.375 " fill-opacity="1" fill-rule="nonzero"/></g><path fill="#ffffff" d="M 187.292969 310.949219 C 191.8125 310.949219 195.476562 307.28125 195.476562 302.765625 L 195.476562 158.101562 C 195.476562 153.582031 191.8125 149.914062 187.292969 149.914062 C 182.773438 149.914062 179.105469 153.582031 179.105469 158.101562 L 179.105469 302.765625 C 179.105469 307.28125 182.773438 310.949219 187.292969 310.949219 Z M 187.292969 310.949219 " fill-opacity="1" fill-rule="nonzero"/><path fill="#ffffff" d="M 236.230469 310.570312 C 236.5 310.597656 236.769531 310.609375 237.03125 310.609375 C 241.199219 310.609375 244.761719 307.449219 245.171875 303.21875 L 259.195312 159.234375 C 259.632812 154.734375 256.339844 150.730469 251.84375 150.292969 C 247.277344 149.828125 243.335938 153.144531 242.898438 157.644531 L 228.875 301.625 C 228.4375 306.128906 231.726562 310.132812 236.226562 310.570312 Z M 236.230469 310.570312 " fill-opacity="1" fill-rule="nonzero"/><path fill="#ffffff" d="M 137.550781 310.609375 C 137.8125 310.609375 138.082031 310.597656 138.351562 310.570312 C 142.851562 310.136719 146.140625 306.128906 145.703125 301.625 L 131.679688 157.644531 C 131.242188 153.144531 127.300781 149.832031 122.738281 150.292969 C 118.238281 150.726562 114.949219 154.734375 115.386719 159.234375 L 129.410156 303.21875 C 129.824219 307.445312 133.382812 310.609375 137.546875 310.609375 Z M 137.550781 310.609375 " fill-opacity="1" fill-rule="nonzero"/></svg>